<svg xmlns="http://www.w3.org/2000/svg" viewBox="0 0 460.39 132.41"><defs><style>.cls-1{fill:#6467af;opacity:0.6;}.cls-1,.cls-2{fill-rule:evenodd;}.cls-2{fill:#00a;}</style></defs><title>Asset 3</title><g id="Layer_2" data-name="Layer 2"><g id="Layer_1-2" data-name="Layer 1"><path class="cls-1" d="M209.74,93.56l8.65,18.12c-5.87,11.39-12.32,18.87-27.42,20.47a29.45,29.45,0,0,1-24.33-8.34c-5.92-6-8.61-13.38-12.33-20.78C147,88.41,123.83,43.52,122.65,35.7c-.74-4.72-.76-10.29.74-13.7v0h0a195.39,195.39,0,0,1,9.88-17.8h0A7.65,7.65,0,0,1,140,.31a7.85,7.85,0,0,1,7.72,7.86,7.74,7.74,0,0,1-1,3.89h0l-6.78,11.59h0v0A17,17,0,0,0,138,30.81c-.36,6.33,3.91,12.48,6.7,18.06,0,0,22.68,44.9,25.14,50.42A66.8,66.8,0,0,0,176.55,111a23.15,23.15,0,0,0,2.4,2.37,15.23,15.23,0,0,0,19.82-.9,13.47,13.47,0,0,0,1.71-1.88,56,56,0,0,0,4.09-6.71c.27-.52,2.2-4.36,5.17-10.27"/><path class="cls-1" d="M236.07,75.93c13.2-26.45,32.3-64.08,32.3-64.08l0-.06.24-.47h0a7.69,7.69,0,0,0,.68-3.18,7.69,7.69,0,0,0-14.65-3.43h0L227.44,59Z"/><path class="cls-2" d="M337.73,8.14a7.69,7.69,0,0,0-14.66-3.43h0s-48.32,96.41-49.75,99.16a56.8,56.8,0,0,1-4.09,6.71,14.07,14.07,0,0,1-1.71,1.88,15.21,15.21,0,0,1-19.82.89,22.84,22.84,0,0,1-2.4-2.36,66.55,66.55,0,0,1-6.71-11.67c-2.46-5.52-25.14-50.42-25.14-50.42-2.79-5.57-7.06-11.73-6.69-18.06a17.24,17.24,0,0,1,1.91-7.11s0,0,0,0h0l6.79-11.59h0a7.78,7.78,0,0,0,1.05-3.89A7.86,7.86,0,0,0,208.78.34,7.67,7.67,0,0,0,202,4.22h0A199.16,199.16,0,0,0,192.14,22h0c-1.5,3.42-1.48,9-.74,13.7,1.18,7.82,24.33,52.72,31.66,67.33,3.72,7.41,6.41,14.81,12.33,20.78a28.52,28.52,0,0,0,3.89,3.25,29.14,29.14,0,0,0,20.44,5.09c20-2.11,24.83-14.56,33.25-32.75,5.93-12.89,43.83-87.58,43.83-87.58l0-.06.23-.47h0A7.69,7.69,0,0,0,337.73,8.14Z"/><path class="cls-2" d="M459.67,121.17a.08.08,0,0,0,0,0h0L447.31,96.44a2.6,2.6,0,0,0-.1-.25C436.32,74.27,424.4,51.9,413.78,30c-3.14-6.49-7.07-16-12.12-21C388.75-3.66,366.88-3,355.5,11.35,351.38,16.54,347,26.68,344,32.9c-3.64,7.36-7.36,14.72-11,22.05L321.89,77c-4.15,8.28-8.46,14.83-8.34,24.5.11,9.22,2.73,16.52,9.49,22.89,7.52,7.07,16,7.58,25.76,7.65,21.92.12,8.66.1,30.51.1h.1a7.71,7.71,0,0,0,7.69-7.73,7.79,7.79,0,0,0-7.66-7.82h-17c-6.17,0-19.52,1-24.58-1.72a16,16,0,0,1-8.26-17.49c.76-3.59,6.43-13.66,8.39-17.59l17.42-35.15c2.85-5.85,5.9-11.67,8.78-17.51,3-6.17,7.12-11.09,14.63-11.32,7.31-.23,12.47,3.74,15.59,10.08l16.68,33.37-28.71,0h0a7.75,7.75,0,0,0,0,15.49h.09l36.72-.11c.61,1.2,1.22,2.41,1.81,3.62l8.45,16.85h0l6.57,13,2.59,5.17a1.27,1.27,0,0,0,.07.12l7.13,14.14h0v0a7.7,7.7,0,1,0,14-6.44Z"/><path class="cls-2" d="M122,73.27c-7.46-14.53-14.63-29.36-22-44-3.71-7.41-6.41-14.81-12.32-20.78A29.14,29.14,0,0,0,63.49.23C43.51,2.36,38.7,14.81,30.3,33c-5.92,12.9-15.37,30.91-22,44.23C4,85.79,0,91.82,0,101.81c0,9,3.22,17.09,10,23.14,7.83,7,16.06,7.18,25.9,7.21h65.91c19.72,0,33-16.08,29.9-35.54C130.55,88.8,125.69,80.41,122,73.27Zm-5.63,28.25c-.39,6.81-4.18,12.15-10.73,14.35-4.5,1.51-19,.82-24.54.82H56.07c-8,0-17.54.48-25.35,0a15.91,15.91,0,0,1-14.09-11c-2.51-7.45,1.41-12.9,4.59-19.26,5.55-11.13,11-22.69,16.8-33.66,3.44-6.51,13.37-29.29,17.52-32.95A15.69,15.69,0,0,1,74.19,18c5,2.93,8,9.79,10.37,15,2.45,5.52,5.6,11.31,8.34,16.74l16.8,33.67C112.49,89,116.76,95.19,116.4,101.52Z"/></g></g></svg>